<?xml version="1.0" encoding="UTF-8"?>
<!DOCTYPE svg PUBLIC "-//W3C//DTD SVG 1.1//EN" "http://www.w3.org/Graphics/SVG/1.1/DTD/svg11.dtd">
<svg xmlns="http://www.w3.org/2000/svg" version="1.1" width="1082px" height="1080px" style="shape-rendering:geometricPrecision; text-rendering:geometricPrecision; image-rendering:optimizeQuality; fill-rule:evenodd; clip-rule:evenodd" xmlns:xlink="http://www.w3.org/1999/xlink">
<g><path style="opacity:0.998" fill="#00a4cf" d="M 219.5,1.5 C 219.5,72.8333 219.5,144.167 219.5,215.5C 219.5,286.833 219.5,358.167 219.5,429.5C 147.833,429.5 76.1667,429.5 4.5,429.5C 4.5,286.833 4.5,144.167 4.5,1.5C 76.1667,1.5 147.833,1.5 219.5,1.5 Z"/></g>
<g><path style="opacity:1" fill="#45afac" d="M 219.5,1.5 C 290.833,1.5 362.167,1.5 433.5,1.5C 433.5,72.8333 433.5,144.167 433.5,215.5C 362.167,215.5 290.833,215.5 219.5,215.5C 219.5,144.167 219.5,72.8333 219.5,1.5 Z"/></g>
<g><path style="opacity:1" fill="#9bb685" d="M 433.5,1.5 C 504.833,1.5 576.167,1.5 647.5,1.5C 647.5,72.8333 647.5,144.167 647.5,215.5C 647.167,215.5 646.833,215.5 646.5,215.5C 575.5,215.5 504.5,215.5 433.5,215.5C 433.5,144.167 433.5,72.8333 433.5,1.5 Z"/></g>
<g><path style="opacity:1" fill="#d0ba54" d="M 647.5,1.5 C 718.5,1.5 789.5,1.5 860.5,1.5C 860.5,72.8333 860.5,144.167 860.5,215.5C 789.5,215.5 718.5,215.5 647.5,215.5C 647.5,144.167 647.5,72.8333 647.5,1.5 Z"/></g>
<g><path style="opacity:0.999" fill="#febe00" d="M 860.5,1.5 C 932.451,71.7844 1003.78,142.784 1074.5,214.5C 1003.67,215.499 932.669,215.833 861.5,215.5C 861.167,215.5 860.833,215.5 860.5,215.5C 860.5,144.167 860.5,72.8333 860.5,1.5 Z"/></g>
<g><path style="opacity:1" fill="#02a055" d="M 219.5,215.5 C 290.833,215.5 362.167,215.5 433.5,215.5C 433.5,286.833 433.5,358.167 433.5,429.5C 433.167,429.5 432.833,429.5 432.5,429.5C 361.5,429.5 290.5,429.5 219.5,429.5C 219.5,358.167 219.5,286.833 219.5,215.5 Z"/></g>
<g><path style="opacity:1" fill="#f49c1f" d="M 1074.5,214.5 C 1075.5,285.998 1075.83,357.665 1075.5,429.5C 1004.17,429.5 932.833,429.5 861.5,429.5C 861.5,358.167 861.5,286.833 861.5,215.5C 932.669,215.833 1003.67,215.499 1074.5,214.5 Z"/></g>
<g><path style="opacity:1" fill="#be6437" d="M 433.5,215.5 C 504.5,215.5 575.5,215.5 646.5,215.5C 646.5,286.833 646.5,358.167 646.5,429.5C 575.5,429.5 504.5,429.5 433.5,429.5C 433.5,358.167 433.5,286.833 433.5,215.5 Z"/></g>
<g><path style="opacity:1" fill="#fe2934" d="M 646.5,215.5 C 646.833,215.5 647.167,215.5 647.5,215.5C 718.5,215.5 789.5,215.5 860.5,215.5C 860.5,358.5 860.5,501.5 860.5,644.5C 789.262,644.831 718.096,644.498 647,643.5C 646.5,572.167 646.333,500.834 646.5,429.5C 646.5,358.167 646.5,286.833 646.5,215.5 Z"/></g>
<g><path style="opacity:0.998" fill="#f58216" d="M 861.5,429.5 C 932.833,429.5 1004.17,429.5 1075.5,429.5C 1075.5,501.167 1075.5,572.833 1075.5,644.5C 1004.17,644.5 932.833,644.5 861.5,644.5C 861.5,572.833 861.5,501.167 861.5,429.5 Z"/></g>
<g><path style="opacity:0.998" fill="#00983d" d="M 4.5,430.5 C 76.1667,430.5 147.833,430.5 219.5,430.5C 219.5,501.5 219.5,572.5 219.5,643.5C 219.5,643.833 219.5,644.167 219.5,644.5C 219.167,644.5 218.833,644.5 218.5,644.5C 147.167,644.5 75.8333,644.5 4.5,644.5C 4.5,573.167 4.5,501.833 4.5,430.5 Z"/></g>
<g><path style="opacity:1" fill="#008333" d="M 4.5,430.5 C 4.5,430.167 4.5,429.833 4.5,429.5C 76.1667,429.5 147.833,429.5 219.5,429.5C 290.5,429.5 361.5,429.5 432.5,429.5C 432.5,500.833 432.5,572.167 432.5,643.5C 361.5,643.5 290.5,643.5 219.5,643.5C 219.5,572.5 219.5,501.5 219.5,430.5C 147.833,430.5 76.1667,430.5 4.5,430.5 Z"/></g>
<g><path style="opacity:1" fill="#875e35" d="M 432.5,429.5 C 432.833,429.5 433.167,429.5 433.5,429.5C 433.5,501.167 433.5,572.833 433.5,644.5C 433.167,644.5 432.833,644.5 432.5,644.5C 361.5,644.5 290.5,644.5 219.5,644.5C 219.5,644.167 219.5,643.833 219.5,643.5C 290.5,643.5 361.5,643.5 432.5,643.5C 432.5,572.167 432.5,500.833 432.5,429.5 Z"/></g>
<g><path style="opacity:1" fill="#cd1837" d="M 432.5,644.5 C 432.833,644.5 433.167,644.5 433.5,644.5C 504.5,644.5 575.5,644.5 646.5,644.5C 646.5,715.833 646.5,787.167 646.5,858.5C 575.5,858.5 504.5,858.5 433.5,858.5C 433.167,858.5 432.833,858.5 432.5,858.5C 432.5,787.167 432.5,715.833 432.5,644.5 Z"/></g>
<g><path style="opacity:0.998" fill="#00a5d0" d="M 4.5,644.5 C 75.8333,644.5 147.167,644.5 218.5,644.5C 218.5,715.5 218.5,786.5 218.5,857.5C 147.167,857.5 75.8333,857.5 4.5,857.5C 4.5,786.5 4.5,715.5 4.5,644.5 Z"/></g>
<g><path style="opacity:1" fill="#e42a36" d="M 219.5,644.5 C 290.5,644.5 361.5,644.5 432.5,644.5C 432.5,715.833 432.5,787.167 432.5,858.5C 361.5,858.5 290.5,858.5 219.5,858.5C 219.5,787.167 219.5,715.833 219.5,644.5 Z"/></g>
<g><path style="opacity:1" fill="#e42b37" d="M 433.5,429.5 C 504.5,429.5 575.5,429.5 646.5,429.5C 646.333,500.834 646.5,572.167 647,643.5C 718.096,644.498 789.262,644.831 860.5,644.5C 860.5,715.833 860.5,787.167 860.5,858.5C 789.167,858.5 717.833,858.5 646.5,858.5C 646.5,787.167 646.5,715.833 646.5,644.5C 575.5,644.5 504.5,644.5 433.5,644.5C 433.5,572.833 433.5,501.167 433.5,429.5 Z"/></g>
<g><path style="opacity:1" fill="#fb592b" d="M 861.5,644.5 C 932.833,644.5 1004.17,644.5 1075.5,644.5C 1075.5,715.5 1075.5,786.5 1075.5,857.5C 1004.17,857.5 932.833,857.5 861.5,857.5C 861.5,786.5 861.5,715.5 861.5,644.5 Z"/></g>
<g><path style="opacity:1" fill="#008cb2" d="M 218.5,644.5 C 218.833,644.5 219.167,644.5 219.5,644.5C 219.5,715.833 219.5,787.167 219.5,858.5C 147.833,858.5 76.1667,858.5 4.5,858.5C 4.5,858.167 4.5,857.833 4.5,857.5C 75.8333,857.5 147.167,857.5 218.5,857.5C 218.5,786.5 218.5,715.5 218.5,644.5 Z"/></g>
<g><path style="opacity:1" fill="#fb512d" d="M 860.5,215.5 C 860.833,215.5 861.167,215.5 861.5,215.5C 861.5,286.833 861.5,358.167 861.5,429.5C 861.5,501.167 861.5,572.833 861.5,644.5C 861.5,715.5 861.5,786.5 861.5,857.5C 932.833,857.5 1004.17,857.5 1075.5,857.5C 1075.5,857.833 1075.5,858.167 1075.5,858.5C 1003.83,858.5 932.167,858.5 860.5,858.5C 860.5,787.167 860.5,715.833 860.5,644.5C 860.5,501.5 860.5,358.5 860.5,215.5 Z"/></g>
<g><path style="opacity:1" fill="#cd1737" d="M 646.5,858.5 C 717.833,858.5 789.167,858.5 860.5,858.5C 860.5,929.833 860.5,1001.17 860.5,1072.5C 789.167,1072.5 717.833,1072.5 646.5,1072.5C 646.5,1001.17 646.5,929.833 646.5,858.5 Z"/></g>
<g><path style="opacity:0.998" fill="#e42a36" d="M 4.5,858.5 C 76.1667,858.5 147.833,858.5 219.5,858.5C 219.5,858.833 219.5,859.167 219.5,859.5C 219.5,930.5 219.5,1001.5 219.5,1072.5C 147.215,1001.88 75.5487,930.549 4.5,858.5 Z"/></g>
<g><path style="opacity:1" fill="#781928" d="M 219.5,859.5 C 290.5,859.5 361.5,859.5 432.5,859.5C 432.5,930.5 432.5,1001.5 432.5,1072.5C 361.5,1072.5 290.5,1072.5 219.5,1072.5C 219.5,1001.5 219.5,930.5 219.5,859.5 Z"/></g>
<g><path style="opacity:1" fill="#6b1727" d="M 219.5,859.5 C 219.5,859.167 219.5,858.833 219.5,858.5C 290.5,858.5 361.5,858.5 432.5,858.5C 432.833,858.5 433.167,858.5 433.5,858.5C 433.5,929.833 433.5,1001.17 433.5,1072.5C 433.167,1072.5 432.833,1072.5 432.5,1072.5C 432.5,1001.5 432.5,930.5 432.5,859.5C 361.5,859.5 290.5,859.5 219.5,859.5 Z"/></g>
<g><path style="opacity:1" fill="#591723" d="M 433.5,858.5 C 504.5,858.5 575.5,858.5 646.5,858.5C 646.5,929.833 646.5,1001.17 646.5,1072.5C 575.5,1072.5 504.5,1072.5 433.5,1072.5C 433.5,1001.17 433.5,929.833 433.5,858.5 Z"/></g>
<g><path style="opacity:0.998" fill="#fe2834" d="M 860.5,858.5 C 932.167,858.5 1003.83,858.5 1075.5,858.5C 1075.5,929.833 1075.5,1001.17 1075.5,1072.5C 1003.83,1072.5 932.167,1072.5 860.5,1072.5C 860.5,1001.17 860.5,929.833 860.5,858.5 Z"/></g>
</svg>
